<svg xmlns="http://www.w3.org/2000/svg" xmlns:xlink="http://www.w3.org/1999/xlink" width="500" zoomAndPan="magnify" viewBox="0 0 375 374.999991" height="500" preserveAspectRatio="xMidYMid meet" version="1.0"><defs><clipPath id="id1"><path d="M 64 81 L 311 81 L 311 353.722656 L 64 353.722656 Z M 64 81 " clip-rule="nonzero"/></clipPath><clipPath id="id2"><path d="M 12.042969 21.472656 L 363.042969 21.472656 L 363.042969 198 L 12.042969 198 Z M 12.042969 21.472656 " clip-rule="nonzero"/></clipPath></defs><g clip-path="url(#id1)"><path fill="#94e2ff" d="M 310.765625 190.359375 Z M 310.765625 190.359375 L 187.582031 81.226562 L 64.320312 190.40625 L 64.320312 346.414062 C 64.320312 350.445312 67.574219 353.675781 71.601562 353.675781 L 148.632812 353.675781 L 148.632812 285.273438 C 148.632812 281.242188 151.863281 277.988281 155.890625 277.988281 L 219.1875 277.988281 C 223.214844 277.988281 226.449219 281.242188 226.449219 285.273438 L 226.449219 353.675781 L 303.503906 353.675781 C 307.53125 353.675781 310.761719 350.445312 310.761719 346.414062 L 310.761719 190.351562 Z M 64.320312 190.40625 Z M 64.320312 190.40625 " fill-opacity="1" fill-rule="nonzero"/></g><g clip-path="url(#id2)"><path fill="#94e2ff" d="M 186.863281 21.5 L 12.042969 176.34375 L 30.457031 197.125 L 187.578125 57.949219 L 344.664062 197.125 L 363.042969 176.34375 L 188.261719 21.5 L 187.582031 22.289062 L 186.867188 21.5 Z M 186.863281 21.5 " fill-opacity="1" fill-rule="nonzero"/></g><path fill="#94e2ff" d="M 64.320312 43.789062 L 108.636719 43.789062 L 108.25 70.046875 L 64.316406 109.746094 L 64.316406 43.789062 Z M 64.320312 43.789062 " fill-opacity="1" fill-rule="nonzero"/></svg>